<svg width="335" height="334" viewBox="0 0 335 334" fill="none" xmlns="http://www.w3.org/2000/svg">
<circle cx="167.841" cy="146.458" r="71.5" fill="#F1F1F1"/>
<rect x="139.792" y="145.001" width="70" height="98" rx="7" transform="rotate(2.5 139.792 145.001)" fill="#EEEEEE" stroke="#999999" stroke-width="2"/>
<rect x="98.1773" y="139.139" width="74" height="102" rx="9" transform="rotate(-7.5 98.1773 139.139)" fill="#FAFAFA" stroke="#999999" stroke-width="2"/>
<path d="M100.343 147.932C99.7668 143.551 102.85 139.533 107.231 138.956L162.752 131.646C167.132 131.07 171.151 134.153 171.727 138.534L173.685 153.405L102.301 162.803L100.343 147.932Z" fill="#EEEEEE"/>
<rect x="186.208" y="133.602" width="3" height="10" rx="1.5" transform="rotate(82.5 186.208 133.602)" fill="#999999"/>
<rect x="158.811" y="117.036" width="3" height="10" rx="1.5" transform="rotate(-7.5 158.811 117.036)" fill="#999999"/>
<rect x="176.389" y="119.765" width="3" height="10" rx="1.5" transform="rotate(37.5 176.389 119.765)" fill="#999999"/>
<rect x="109.764" y="165.855" width="58" height="4" rx="2" transform="rotate(-7.5 109.764 165.855)" fill="#DCDCDC"/>
<rect x="112.374" y="185.684" width="58" height="4" rx="2" transform="rotate(-7.5 112.374 185.684)" fill="#DCDCDC"/>
<rect x="114.985" y="205.513" width="58" height="4" rx="2" transform="rotate(-7.5 114.985 205.513)" fill="#DCDCDC"/>
<rect x="110.808" y="173.787" width="21" height="4" rx="2" transform="rotate(-7.5 110.808 173.787)" fill="#EEEEEE"/>
<rect x="113.418" y="193.616" width="21" height="4" rx="2" transform="rotate(-7.5 113.418 193.616)" fill="#EEEEEE"/>
<rect x="116.029" y="213.445" width="21" height="4" rx="2" transform="rotate(-7.5 116.029 213.445)" fill="#EEEEEE"/>
</svg>
